<svg xmlns="http://www.w3.org/2000/svg" viewBox="0 0 1638.07 237.34"><defs><style>.cls-1{fill:#404041;}.cls-2{fill:#e4334d;}</style></defs><g id="Layer_2" data-name="Layer 2"><g id="Layer_9" data-name="Layer 9"><path d="M119.36,231.9,90.88,159.58H73V231.9H0V7.9H105.28c57,0,84.16,28.48,84.16,76.48,0,29.12-10.24,50.56-31,63l39.68,84.48ZM73,104.54h25.6c12.16,0,17.92-7,17.92-19.52S110.72,65.5,98.56,65.5H73Z"/><path d="M329.28,225.5,320,163.74c18.56,5.76,54.4,13.76,84.16,13.76,16.32,0,21.44-5.12,21.44-13.12,0-6.72-3.84-10.24-17.92-13.44l-29.76-6.72c-41.28-9.28-57.28-29.12-57.28-69.12,0-46.72,28.48-72.64,90.56-72.64,33.6,0,62.4,6.4,74.88,11.2L489.6,75.1c-14.72-5.76-44.48-13.44-71.68-13.44-16,0-20.16,4.8-20.16,12.16,0,8,4.8,11.2,19.2,14.4l29.12,6.4c39.68,8.64,56.32,27.84,56.32,68.48,0,48-28.16,74.24-92.8,74.24C377.28,237.34,344.64,230.62,329.28,225.5Z"/><path d="M718.4,7.9v224H644.16V149H600.32V231.9H526.07V7.9h74.25v81h43.84V7.9Z"/><path d="M878.46,195.1H818.4l-9.77,36.8H732.15l79.36-224h74.56l79.68,224H888.31Zm-13.7-51.2L848.31,82.46,832,143.9Z"/><path className="cls-1" d="M1034.55,7.9h74.24V168.54h91.84l-10.56,63.36H1034.55Z"/><path className="cls-1" d="M1347.26,195.1h-60.07l-9.77,36.8h-76.48l79.36-224h74.57l79.68,224h-77.44Zm-13.71-51.2-16.44-61.44-16.32,61.44Z"/><path className="cls-1" d="M1448.3,7.9h106.56c51.84,0,77.12,19.52,77.12,59.84,0,21.12-7.36,37.44-22.08,47.36,20.48,9,27.84,28.16,28.16,52.8.32,41.28-25.28,64-79.68,64H1448.3ZM1544.62,94c10.24,0,16.32-5.44,16.32-17.6,0-11.84-6.08-17-16.32-17h-23.36V94Zm.64,86.4c12.16,0,18.88-5.44,18.88-18.24,0-12.48-6.72-18.24-18.88-18.24h-24v36.48Z"/><path d="M255.45,110A64.14,64.14,0,0,1,219.2,98.84V231.9h74.88V97.14A64.15,64.15,0,0,1,255.45,110Z"/><path d="M301,45.51A45.56,45.56,0,1,1,281,7.9a45.73,45.73,0,0,1,13,13.57A45.23,45.23,0,0,1,301,45.51Z"/><circle className="cls-2" cx="255.45" cy="45.51" r="27.5"/></g></g></svg>